<?xml version="1.0" encoding="UTF-8"?><svg id="a" xmlns="http://www.w3.org/2000/svg" viewBox="0 0 199.57 221.73"><defs><style>.b{fill:#fff;}</style></defs><path class="b" d="M71.25,53.98h-3.36v63.78h24.39v.02l9.59-3.26v-35.08l-9.59-4.79h15.03v43.1h24.36V53.98h-60.42Zm57.07,60.42h-17.64v-43.1h-21.75v43.1h-17.67V57.34h57.07v57.07Z"/><g><path class="b" d="M3.97,124.52h4.09v15.9l12.02-15.9h3.87v22.4h-4.09v-15.87l-12.02,15.87H3.97v-22.4Z"/><path class="b" d="M50.4,124.52v22.4h-4.15v-9.6h-11.57v9.6h-4.15v-22.4h4.15v9.25h11.57v-9.25h4.15Z"/><path class="b" d="M73.21,128.05h-7.41v18.88h-4.12v-18.88h-7.38v-3.52h18.92v3.52Z"/><path class="b" d="M93.89,143.44v3.49h-16.78v-22.4h16.33v3.49h-12.17v5.82h10.8v3.42h-10.8v6.18h12.62Z"/><path class="b" d="M113.11,125.48c1.44,.64,2.54,1.56,3.31,2.75,.77,1.2,1.15,2.61,1.15,4.26s-.38,3.03-1.15,4.24c-.77,1.21-1.87,2.13-3.31,2.77-1.44,.64-3.13,.96-5.06,.96h-5.05v6.46h-4.15v-22.4h9.2c1.94,0,3.63,.32,5.06,.96Zm-1.13,10.3c.94-.77,1.41-1.87,1.41-3.3s-.47-2.53-1.41-3.3c-.94-.77-2.31-1.15-4.12-1.15h-4.86v8.9h4.86c1.81,0,3.18-.38,4.12-1.15Z"/><path class="b" d="M121.85,124.52h4.09v15.9l12.02-15.9h3.87v22.4h-4.09v-15.87l-12.02,15.87h-3.87v-22.4Z"/><path class="b" d="M167.61,124.52l-9.71,18.08c-.85,1.6-1.87,2.8-3.05,3.6-1.18,.8-2.47,1.2-3.85,1.2-1.11,0-2.21-.24-3.29-.7l1.02-3.26c.87,.28,1.6,.42,2.17,.42,1.34,0,2.45-.69,3.32-2.08l.35-.54-8.92-16.7h4.44l6.62,13.15,6.81-13.15h4.09Z"/><path class="b" d="M191.35,146.92l-.03-14.85-7.35,12.29h-1.85l-7.35-12.1v14.66h-3.93v-22.4h3.42l8.85,14.82,8.76-14.82h3.39l.06,22.4h-3.96Z"/></g><g><path class="b" d="M53.91,153.68h1.26v3.52l2.98-3.52h1.15v5.34h-1.26v-3.52l-2.97,3.52h-1.16v-5.34Z"/><path class="b" d="M61.09,153.68h1.26v2.17h2.72v-2.17h1.26v5.34h-1.26v-2.11h-2.72v2.11h-1.26v-5.34Z"/><path class="b" d="M72.4,154.74h-1.89v4.28h-1.26v-4.28h-1.9v-1.06h5.05v1.06Z"/><path class="b" d="M78.21,156.75h-4.23c.07,.39,.27,.7,.58,.93,.31,.23,.7,.34,1.17,.34,.59,0,1.08-.19,1.46-.58l.68,.77c-.24,.29-.55,.5-.92,.65-.37,.15-.79,.22-1.25,.22-.59,0-1.11-.12-1.56-.35s-.8-.56-1.04-.97-.37-.89-.37-1.42,.12-.99,.36-1.41c.24-.42,.57-.74,.99-.97s.9-.35,1.43-.35,.99,.12,1.41,.35c.41,.23,.74,.55,.97,.97s.35,.9,.35,1.45c0,.09,0,.21-.02,.37Zm-3.73-1.78c-.28,.24-.45,.55-.51,.95h3.06c-.05-.39-.22-.7-.5-.94s-.62-.36-1.03-.36-.75,.12-1.02,.36Z"/><path class="b" d="M84.11,153.96c.41,.23,.74,.55,.97,.96,.24,.41,.35,.89,.35,1.43s-.12,1.02-.35,1.43c-.24,.42-.56,.74-.97,.97s-.88,.34-1.41,.34c-.73,0-1.3-.24-1.73-.72v2.59h-1.26v-7.28h1.2v.7c.21-.25,.47-.44,.77-.57s.64-.19,1.01-.19c.52,0,.99,.11,1.41,.34Zm-.4,3.6c.3-.31,.45-.71,.45-1.21s-.15-.9-.45-1.21c-.3-.31-.68-.46-1.15-.46-.3,0-.58,.07-.82,.21s-.43,.33-.58,.58c-.14,.25-.21,.55-.21,.88s.07,.63,.21,.88c.14,.25,.33,.45,.58,.58s.51,.21,.82,.21c.46,0,.85-.15,1.15-.46Z"/><path class="b" d="M91.08,155.9c.37,.31,.55,.74,.55,1.3,0,.59-.2,1.04-.61,1.36-.4,.32-.97,.48-1.71,.47h-2.52v-5.35h1.26v1.75h1.44c.69,0,1.21,.16,1.58,.47Zm-1.02,1.98c.2-.16,.29-.39,.29-.7s-.09-.52-.28-.66-.47-.21-.86-.22h-1.15v1.8h1.15c.37,.02,.65-.06,.85-.22Z"/><path class="b" d="M97.87,156.75h-4.23c.07,.39,.27,.7,.58,.93,.31,.23,.7,.34,1.17,.34,.59,0,1.08-.19,1.46-.58l.68,.77c-.24,.29-.55,.5-.92,.65-.37,.15-.79,.22-1.25,.22-.59,0-1.11-.12-1.56-.35s-.8-.56-1.04-.97-.37-.89-.37-1.42,.12-.99,.36-1.41c.24-.42,.57-.74,.99-.97s.9-.35,1.43-.35,.99,.12,1.41,.35c.41,.23,.74,.55,.97,.97s.35,.9,.35,1.45c0,.09,0,.21-.02,.37Zm-3.73-1.78c-.28,.24-.45,.55-.51,.95h3.06c-.05-.39-.22-.7-.5-.94s-.62-.36-1.03-.36-.75,.12-1.02,.36Z"/><path class="b" d="M103.77,153.96c.41,.23,.74,.55,.97,.96,.24,.41,.35,.89,.35,1.43s-.12,1.02-.35,1.43c-.24,.42-.56,.74-.97,.97s-.88,.34-1.41,.34c-.73,0-1.3-.24-1.73-.72v2.59h-1.26v-7.28h1.2v.7c.21-.25,.47-.44,.77-.57s.64-.19,1.01-.19c.52,0,.99,.11,1.41,.34Zm-.4,3.6c.3-.31,.45-.71,.45-1.21s-.15-.9-.45-1.21c-.3-.31-.68-.46-1.15-.46-.3,0-.58,.07-.82,.21s-.43,.33-.58,.58c-.14,.25-.21,.55-.21,.88s.07,.63,.21,.88c.14,.25,.33,.45,.58,.58s.51,.21,.82,.21c.46,0,.85-.15,1.15-.46Z"/><path class="b" d="M110.28,158.74c-.44-.23-.79-.56-1.04-.97s-.37-.89-.37-1.42,.12-1,.37-1.41,.59-.74,1.04-.97c.44-.23,.94-.35,1.51-.35,.53,0,1,.11,1.4,.32,.4,.21,.7,.52,.9,.92l-.97,.56c-.16-.25-.35-.43-.58-.56-.23-.12-.49-.18-.76-.18-.47,0-.86,.15-1.17,.46-.31,.3-.46,.71-.46,1.21s.15,.91,.46,1.21c.31,.3,.7,.46,1.18,.46,.28,0,.53-.06,.76-.18,.23-.12,.43-.31,.58-.56l.97,.56c-.21,.4-.51,.71-.91,.92s-.86,.33-1.39,.33c-.56,0-1.06-.12-1.5-.35Z"/><path class="b" d="M123.28,153.68l-2.52,5.77c-.24,.58-.52,.99-.86,1.23-.34,.24-.74,.35-1.22,.35-.27,0-.53-.04-.8-.13s-.48-.21-.65-.36l.5-.92c.12,.11,.26,.2,.43,.27,.17,.07,.33,.1,.5,.1,.22,0,.41-.06,.55-.17,.15-.11,.28-.3,.4-.57l.09-.21-2.35-5.36h1.31l1.7,3.95,1.71-3.95h1.21Z"/><path class="b" d="M129.55,159.02v-3.54l-1.82,2.98h-.54l-1.79-2.99v3.55h-1.15v-5.34h1.32l1.92,3.34,2.01-3.34h1.18v5.34h-1.13Z"/><path class="b" d="M133.42,158.74c-.44-.23-.78-.56-1.02-.97s-.37-.89-.37-1.42,.12-1,.37-1.41,.59-.74,1.02-.97,.93-.35,1.47-.35,1.05,.12,1.48,.35,.78,.56,1.02,.97,.37,.88,.37,1.41-.12,1-.37,1.42-.59,.74-1.02,.97-.93,.35-1.48,.35-1.04-.12-1.47-.35Zm2.62-1.18c.3-.31,.45-.71,.45-1.21s-.15-.9-.45-1.21-.69-.46-1.15-.46-.85,.15-1.15,.46c-.3,.31-.45,.71-.45,1.21s.15,.9,.45,1.21c.3,.31,.68,.46,1.15,.46s.85-.15,1.15-.46Z"/><path class="b" d="M144.41,159.02v-3.54l-1.82,2.98h-.54l-1.79-2.99v3.55h-1.15v-5.34h1.32l1.92,3.34,2.01-3.34h1.18v5.34h-1.13Z"/></g></svg>