<svg width="175" height="100" viewBox="0 0 175 100" fill="none" xmlns="http://www.w3.org/2000/svg">
<path d="M61.5309 0H58.458V58.4548H80.764V58.4731L89.5346 55.4853V23.3343L80.764 18.9442H94.5097V58.4456H116.788V0H61.5309ZM113.725 55.3753H97.5918V15.8739H77.7002V55.3753H61.5401V3.07946H113.734V55.3845L113.725 55.3753Z" fill="white"/>
<path d="M0 64.6504H3.74053V79.2228L14.7335 64.6504H18.2728V85.1801H14.5323V70.6352L3.53933 85.1801H0V64.6504Z" fill="white"/>
<path d="M42.4627 64.6504V85.1801H38.6673V76.3817H28.0859V85.1801H24.2905V64.6504H28.0859V73.1281H38.6673V64.6504H42.4627Z" fill="white"/>
<path d="M63.3235 67.8858H56.5467V85.1894H52.7787V67.8858H46.0293V64.6597H63.3327V67.8858H63.3235Z" fill="white"/>
<path d="M82.2368 81.9908V85.1894H66.8906V64.6597H81.8253V67.8583H70.6952V73.1923H80.5724V76.3268H70.6952V81.9908H82.2368Z" fill="white"/>
<path d="M99.8145 65.5302C101.131 66.1168 102.137 66.96 102.842 68.0506C103.546 69.1504 103.893 70.4427 103.893 71.955C103.893 73.4672 103.546 74.732 102.842 75.8409C102.137 76.9499 101.131 77.7931 99.8145 78.3797C98.4975 78.9662 96.9519 79.2595 95.1869 79.2595H90.5684V85.1801H86.7729V64.6504H95.1869C96.9611 64.6504 98.5067 64.9437 99.8145 65.5302ZM98.7811 74.9703C99.6407 74.2645 100.071 73.2564 100.071 71.9458C100.071 70.6352 99.6407 69.627 98.7811 68.9213C97.9214 68.2156 96.6684 67.8673 95.0131 67.8673H90.5684V76.0242H95.0131C96.6684 76.0242 97.9214 75.676 98.7811 74.9703Z" fill="white"/>
<path d="M107.808 64.6504H111.384V79.2228L121.901 64.6504H125.285V85.1801H121.709V70.6352L111.191 85.1801H107.808V64.6504Z" fill="white"/>
<path d="M149.658 64.6504L140.778 81.2208C140 82.6872 139.067 83.787 137.988 84.5203C136.909 85.2535 135.729 85.6201 134.467 85.6201C133.452 85.6201 132.446 85.4001 131.458 84.9785L132.391 81.9907C133.187 82.2473 133.854 82.3756 134.376 82.3756C135.601 82.3756 136.616 81.7432 137.412 80.4693L137.732 79.9744L129.574 64.6687H133.635L139.689 76.7208L145.917 64.6687H149.658V64.6504Z" fill="white"/>
<path d="M171.369 85.1801L171.342 71.57L164.62 82.8339H162.928L156.206 71.7441V85.1801H152.612V64.6504H155.74L163.833 78.233L171.845 64.6504H174.945L175 85.1801H171.378H171.369Z" fill="white"/>
<path d="M32.2471 97.2138V99.5875H31.1405V98.2219H26.1836V99.5875H25.0679V97.2138H25.3514C25.7538 97.1955 26.0464 96.893 26.2019 96.3156C26.3665 95.7382 26.4671 94.9134 26.5037 93.8319L26.5769 91.7972H31.3143V97.2046H32.2471V97.2138ZM27.3543 96.0315C27.2537 96.5814 27.0799 96.9755 26.8604 97.2138H30.1345V92.8146H27.6012L27.5555 93.951C27.528 94.7851 27.4549 95.4724 27.3543 96.0315Z" fill="white"/>
<path d="M34.0945 97.9653C33.6921 97.7545 33.3811 97.4521 33.1616 97.0763C32.9421 96.7006 32.8232 96.2606 32.8232 95.7749C32.8232 95.2891 32.933 94.8584 33.1616 94.4826C33.3903 94.1069 33.7012 93.8044 34.0945 93.5936C34.4877 93.3828 34.945 93.2728 35.4389 93.2728C35.9327 93.2728 36.3991 93.3828 36.7924 93.5936C37.1857 93.8044 37.5058 94.1069 37.7253 94.4826C37.9447 94.8584 38.0636 95.2891 38.0636 95.7749C38.0636 96.2606 37.9539 96.6914 37.7253 97.0763C37.4966 97.4613 37.1857 97.7545 36.7924 97.9653C36.3991 98.1761 35.9419 98.2861 35.4389 98.2861C34.9359 98.2861 34.4877 98.1761 34.0945 97.9653ZM36.4906 96.8839C36.765 96.5997 36.9022 96.2331 36.9022 95.7749C36.9022 95.3166 36.765 94.95 36.4906 94.6659C36.2162 94.3818 35.8596 94.2443 35.4389 94.2443C35.0182 94.2443 34.6615 94.3818 34.3871 94.6659C34.1128 94.95 33.9756 95.3166 33.9756 95.7749C33.9756 96.2331 34.1128 96.5997 34.3871 96.8839C34.6615 97.168 35.009 97.3054 35.4389 97.3054C35.8687 97.3054 36.2162 97.168 36.4906 96.8839Z" fill="white"/>
<path d="M44.1455 98.222V94.9776L42.481 97.7088H41.9871L40.3501 94.9684V98.222H39.2983V93.3279H40.5056L42.2615 96.389L44.0998 93.3279H45.1789V98.222H44.1455Z" fill="white"/>
<path d="M49.5688 91.4215H50.6297V100H49.5688V91.4215Z" fill="white"/>
<path d="M61.0738 98.2219V93.9694L58.9429 97.4887H58.4033L56.2815 94.0244V98.2219H55.1475V91.8064H56.1352L58.6959 96.0498L61.2292 91.8064H62.2078L62.2261 98.2219H61.0829H61.0738Z" fill="white"/>
<path d="M68.5826 96.1415H64.714C64.778 96.4989 64.9609 96.783 65.2444 96.9938C65.5279 97.2046 65.8846 97.3055 66.3145 97.3055C66.8541 97.3055 67.3022 97.1313 67.6497 96.7739L68.2716 97.4796C68.0521 97.7454 67.7686 97.9379 67.4302 98.0753C67.0918 98.2128 66.7077 98.277 66.287 98.277C65.7474 98.277 65.2719 98.167 64.8603 97.9562C64.4488 97.7454 64.1287 97.4429 63.9092 97.0672C63.6897 96.6914 63.5708 96.2515 63.5708 95.7657C63.5708 95.28 63.6805 94.8584 63.9 94.4735C64.1195 94.0885 64.4213 93.7952 64.8054 93.5844C65.1896 93.3736 65.6285 93.2637 66.1133 93.2637C66.598 93.2637 67.0187 93.3736 67.4028 93.5844C67.7777 93.7952 68.0795 94.0885 68.2899 94.4735C68.5002 94.8584 68.61 95.2983 68.61 95.8024C68.61 95.8849 68.61 95.9949 68.5917 96.1415H68.5826ZM65.1713 94.5101C64.9152 94.7301 64.7597 95.0142 64.7048 95.3808H67.5034C67.4577 95.0234 67.3022 94.7392 67.0461 94.5193C66.79 94.2993 66.4791 94.1893 66.1041 94.1893C65.7291 94.1893 65.4182 94.2993 65.1713 94.5193V94.5101Z" fill="white"/>
<path d="M73.8685 93.8594C74.2251 94.061 74.4995 94.336 74.7007 94.6934C74.9019 95.0509 75.0025 95.4541 75.0025 95.9124C75.0025 96.3707 74.8928 96.8014 74.6733 97.1588C74.4538 97.5255 74.1428 97.8096 73.7404 98.002C73.338 98.2037 72.8808 98.3045 72.3778 98.3045C71.5181 98.3045 70.8596 98.0204 70.3932 97.4613C69.9268 96.9022 69.689 96.0865 69.689 95.0325C69.689 94.0519 69.8993 93.2728 70.3292 92.6954C70.7499 92.1181 71.3992 91.7423 72.2772 91.559L74.5635 91.0732L74.7282 92.0997L72.6521 92.5213C72.0577 92.6405 71.6095 92.8513 71.3169 93.1445C71.0242 93.4378 70.8504 93.8503 70.8047 94.3818C71.0242 94.116 71.2894 93.9144 71.6095 93.7678C71.9205 93.6211 72.268 93.5478 72.643 93.5478C73.1094 93.5478 73.5209 93.6486 73.8776 93.8503L73.8685 93.8594ZM73.4295 96.9755C73.6947 96.7006 73.8228 96.3615 73.8228 95.9399C73.8228 95.5183 73.6947 95.1792 73.4295 94.9226C73.1643 94.6659 72.8259 94.5376 72.396 94.5376C71.9662 94.5376 71.6187 94.6659 71.3535 94.9226C71.0882 95.1792 70.9602 95.5183 70.9602 95.9399C70.9602 96.3615 71.0974 96.7189 71.3626 96.9847C71.6278 97.2505 71.9753 97.388 72.4052 97.388C72.835 97.388 73.1734 97.2505 73.4386 96.9755H73.4295Z" fill="white"/>
<path d="M80.8101 96.1415H76.9415C77.0056 96.4989 77.1885 96.783 77.472 96.9938C77.7555 97.2046 78.1122 97.3055 78.542 97.3055C79.0816 97.3055 79.5297 97.1313 79.8772 96.7739L80.4991 97.4796C80.2797 97.7454 79.9961 97.9379 79.6578 98.0753C79.3194 98.2128 78.9353 98.277 78.5146 98.277C77.975 98.277 77.4994 98.167 77.0879 97.9562C76.6763 97.7454 76.3562 97.4429 76.1367 97.0672C75.9172 96.6914 75.7983 96.2515 75.7983 95.7657C75.7983 95.28 75.9081 94.8584 76.1276 94.4735C76.3471 94.0885 76.6489 93.7952 77.033 93.5844C77.4171 93.3736 77.8561 93.2637 78.3408 93.2637C78.8255 93.2637 79.2462 93.3736 79.6303 93.5844C80.0053 93.7952 80.3071 94.0885 80.5174 94.4735C80.7278 94.8584 80.8375 95.2983 80.8375 95.8024C80.8375 95.8849 80.8375 95.9949 80.8192 96.1415H80.8101ZM77.3988 94.5101C77.1427 94.7301 76.9873 95.0142 76.9324 95.3808H79.7309C79.6852 95.0234 79.5297 94.7392 79.2736 94.5193C79.0176 94.2993 78.7066 94.1893 78.3317 94.1893C77.9567 94.1893 77.6457 94.2993 77.3988 94.5193V94.5101Z" fill="white"/>
<path d="M86.5902 93.3279V98.222H85.4378V94.2994H83.5904L83.5447 95.2709C83.5173 95.9216 83.4533 96.4623 83.3618 96.8931C83.2703 97.333 83.124 97.6721 82.9045 97.9287C82.6942 98.1854 82.4015 98.3137 82.0357 98.3137C81.8619 98.3137 81.6516 98.277 81.3955 98.2129L81.4504 97.2505C81.5327 97.2689 81.6059 97.278 81.6699 97.278C81.9077 97.278 82.0814 97.1864 82.2003 97.0031C82.3192 96.8198 82.3924 96.5906 82.429 96.334C82.4655 96.0774 82.493 95.7016 82.5204 95.2251L82.6027 93.3371H86.5902V93.3279Z" fill="white"/>
<path d="M92.1505 95.3625C92.4889 95.6466 92.6535 96.0407 92.6535 96.554C92.6535 97.0947 92.4706 97.5072 92.0956 97.8004C91.7298 98.0937 91.2085 98.2404 90.5317 98.2312H88.2271V93.3279H89.3794V94.9318H90.6963C91.3274 94.9318 91.803 95.0784 92.1413 95.3625H92.1505ZM91.2176 97.1772C91.4006 97.0306 91.4829 96.8198 91.4829 96.5357C91.4829 96.2515 91.4006 96.0591 91.2268 95.9308C91.053 95.8024 90.7969 95.7383 90.4403 95.7291H89.3885V97.3788H90.4403C90.7787 97.3972 91.0347 97.3238 91.2176 97.1772Z" fill="white"/>
<path d="M96.4946 91.4215H97.5555V100H96.4946V91.4215Z" fill="white"/>
<path d="M102.064 91.8064H103.244V96.3614L106.72 91.8064H107.835V98.2219H106.656V93.6761L103.18 98.2219H102.064V91.8064Z" fill="white"/>
<path d="M109.609 93.3279H110.762V95.3167H113.249V93.3279H114.402V98.222H113.249V96.2882H110.762V98.222H109.609V93.3279Z" fill="white"/>
<path d="M119.953 94.2994H118.224V98.222H117.072V94.2994H115.334V93.3279H119.953V94.2994Z" fill="white"/>
<path d="M125.267 96.1415H121.398C121.462 96.4989 121.645 96.783 121.929 96.9938C122.212 97.2046 122.569 97.3055 122.999 97.3055C123.538 97.3055 123.986 97.1313 124.334 96.7739L124.956 97.4796C124.736 97.7454 124.453 97.9379 124.114 98.0753C123.776 98.2128 123.392 98.277 122.971 98.277C122.432 98.277 121.956 98.167 121.544 97.9562C121.133 97.7454 120.813 97.4429 120.593 97.0672C120.374 96.6914 120.255 96.2515 120.255 95.7657C120.255 95.28 120.365 94.8584 120.584 94.4735C120.804 94.0885 121.105 93.7952 121.49 93.5844C121.874 93.3736 122.313 93.2637 122.797 93.2637C123.282 93.2637 123.703 93.3736 124.087 93.5844C124.462 93.7952 124.764 94.0885 124.974 94.4735C125.184 94.8584 125.294 95.2983 125.294 95.8024C125.294 95.8849 125.294 95.9949 125.276 96.1415H125.267ZM121.855 94.5101C121.599 94.7301 121.444 95.0142 121.389 95.3808H124.187C124.142 95.0234 123.986 94.7392 123.73 94.5193C123.474 94.2993 123.163 94.1893 122.788 94.1893C122.413 94.1893 122.102 94.2993 121.855 94.5193V94.5101Z" fill="white"/>
<path d="M130.662 93.5844C131.037 93.7952 131.339 94.0885 131.549 94.4643C131.769 94.8401 131.869 95.28 131.869 95.7749C131.869 96.2698 131.76 96.7097 131.549 97.0855C131.33 97.4704 131.037 97.7637 130.662 97.9745C130.287 98.1853 129.857 98.2861 129.373 98.2861C128.705 98.2861 128.184 98.0662 127.791 97.6262V100H126.638V93.3278H127.736V93.9694C127.928 93.7402 128.165 93.5661 128.44 93.447C128.714 93.3278 129.025 93.2728 129.364 93.2728C129.839 93.2728 130.269 93.3736 130.653 93.5844H130.662ZM130.296 96.8839C130.571 96.5997 130.708 96.2331 130.708 95.7749C130.708 95.3166 130.571 94.95 130.296 94.6659C130.022 94.3818 129.674 94.2443 129.245 94.2443C128.97 94.2443 128.714 94.3085 128.495 94.4368C128.275 94.5651 128.101 94.7392 127.964 94.9684C127.836 95.1975 127.772 95.4724 127.772 95.7749C127.772 96.0773 127.836 96.3523 127.964 96.5814C128.092 96.8105 128.266 96.9938 128.495 97.113C128.723 97.2321 128.961 97.3054 129.245 97.3054C129.665 97.3054 130.022 97.168 130.296 96.8839Z" fill="white"/>
<path d="M137.037 95.3625C137.375 95.6466 137.54 96.0407 137.54 96.554C137.54 97.0947 137.357 97.5072 136.982 97.8004C136.616 98.0937 136.095 98.2404 135.418 98.2312H133.113V93.3279H134.266V94.9318H135.583C136.214 94.9318 136.689 95.0784 137.028 95.3625H137.037ZM136.104 97.1772C136.287 97.0306 136.369 96.8198 136.369 96.5357C136.369 96.2515 136.287 96.0591 136.113 95.9308C135.939 95.8024 135.683 95.7383 135.326 95.7291H134.275V97.3788H135.326C135.665 97.3972 135.921 97.3238 136.104 97.1772Z" fill="white"/>
<path d="M143.247 96.1415H139.378C139.442 96.4989 139.625 96.783 139.909 96.9938C140.192 97.2046 140.549 97.3055 140.979 97.3055C141.518 97.3055 141.966 97.1313 142.314 96.7739L142.936 97.4796C142.716 97.7454 142.433 97.9379 142.094 98.0753C141.756 98.2128 141.372 98.277 140.951 98.277C140.412 98.277 139.936 98.167 139.524 97.9562C139.113 97.7454 138.793 97.4429 138.573 97.0672C138.354 96.6914 138.235 96.2515 138.235 95.7657C138.235 95.28 138.345 94.8584 138.564 94.4735C138.784 94.0885 139.085 93.7952 139.47 93.5844C139.854 93.3736 140.293 93.2637 140.777 93.2637C141.262 93.2637 141.683 93.3736 142.067 93.5844C142.442 93.7952 142.744 94.0885 142.954 94.4735C143.164 94.8584 143.274 95.2983 143.274 95.8024C143.274 95.8849 143.274 95.9949 143.256 96.1415H143.247ZM139.835 94.5101C139.579 94.7301 139.424 95.0142 139.369 95.3808H142.167C142.122 95.0234 141.966 94.7392 141.71 94.5193C141.454 94.2993 141.143 94.1893 140.768 94.1893C140.393 94.1893 140.082 94.2993 139.835 94.5193V94.5101Z" fill="white"/>
<path d="M148.643 93.5844C149.018 93.7952 149.319 94.0885 149.53 94.4643C149.749 94.8401 149.85 95.28 149.85 95.7749C149.85 96.2698 149.74 96.7097 149.53 97.0855C149.31 97.4704 149.018 97.7637 148.643 97.9745C148.268 98.1853 147.838 98.2861 147.353 98.2861C146.686 98.2861 146.164 98.0662 145.771 97.6262V100H144.619V93.3278H145.716V93.9694C145.908 93.7402 146.146 93.5661 146.42 93.447C146.695 93.3278 147.006 93.2728 147.344 93.2728C147.82 93.2728 148.249 93.3736 148.634 93.5844H148.643ZM148.277 96.8839C148.551 96.5997 148.688 96.2331 148.688 95.7749C148.688 95.3166 148.551 94.95 148.277 94.6659C148.003 94.3818 147.655 94.2443 147.225 94.2443C146.951 94.2443 146.695 94.3085 146.475 94.4368C146.256 94.5651 146.082 94.7392 145.945 94.9684C145.817 95.1975 145.753 95.4724 145.753 95.7749C145.753 96.0773 145.817 96.3523 145.945 96.5814C146.073 96.8105 146.247 96.9938 146.475 97.113C146.704 97.2321 146.942 97.3054 147.225 97.3054C147.646 97.3054 148.003 97.168 148.277 96.8839Z" fill="white"/>
</svg>
