<svg width="48" height="48" viewBox="0 0 48 48" fill="none" xmlns="http://www.w3.org/2000/svg">
<path d="M4.14011 9.20001C5.74011 2.28001 16.1601 2.28001 17.7401 9.20001C18.6801 13.26 16.1001 16.7 13.8601 18.84C12.2201 20.4 9.64011 20.38 8.00011 18.84C5.78011 16.7 3.20011 13.26 4.14011 9.20001Z" stroke="#0177C3" stroke-width="2"/>
<path d="M30.14 33.2C31.74 26.28 42.22 26.28 43.82 33.2C44.76 37.26 42.18 40.7 39.92 42.84C38.28 44.4 35.68 44.38 34.04 42.84C31.78 40.7 29.2 37.26 30.14 33.2Z" stroke="#0177C3" stroke-width="2"/>
<path d="M23.9999 10H29.3599C33.0599 10 34.7799 14.58 31.9999 17.02L16.0199 31C13.2399 33.42 14.9599 38 18.6399 38H23.9999" stroke="#0177C3" stroke-width="2" stroke-linecap="round" stroke-linejoin="round"/>
<path d="M10.9724 11H10.9955" stroke="#0177C3" stroke-width="2" stroke-linecap="round" stroke-linejoin="round"/>
<path d="M36.9724 35H36.9955" stroke="#0177C3" stroke-width="2" stroke-linecap="round" stroke-linejoin="round"/>
</svg>
