							<svg width="48" height="48" viewBox="0 0 48 48" fill="none" xmlns="http://www.w3.org/2000/svg">
								<path
									d="M43.62 7.88C40.54 15.56 32.82 26 26.36 31.18L22.42 34.34C21.92 34.7 21.42 35.02 20.86 35.24C20.86 34.88 20.84 34.48 20.78 34.1C20.56 32.42 19.8 30.86 18.46 29.52C17.1 28.16 15.44 27.36 13.74 27.14C13.34 27.12 12.94 27.08 12.54 27.12C12.76 26.5 13.1 25.92 13.52 25.44L16.64 21.5C21.8 15.04 32.28 7.28 39.94 4.22C41.12 3.78 42.26 4.1 42.98 4.84C43.74 5.58 44.1 6.72 43.62 7.88Z"
									stroke="#0177C3" stroke-width="2" stroke-linecap="round" stroke-linejoin="round"></path>
								<path
									d="M20.8601 35.24C20.8601 37.44 20.0201 39.54 18.4401 41.14C17.2201 42.36 15.5601 43.2 13.5801 43.46L8.66006 44C5.98006 44.3 3.68006 42.02 4.00006 39.3L4.54006 34.38C5.02006 30 8.68006 27.2 12.5601 27.12C12.9601 27.1 13.3801 27.12 13.7601 27.14C15.4601 27.36 17.1201 28.14 18.4801 29.52C19.8201 30.86 20.5801 32.42 20.8001 34.1C20.8201 34.48 20.8601 34.86 20.8601 35.24Z"
									stroke="#0177C3" stroke-width="2" stroke-linecap="round" stroke-linejoin="round"></path>
								<path d="M28.48 28.94C28.48 23.72 24.24 19.48 19.02 19.48" stroke="#0177C3" stroke-width="2"
									stroke-linecap="round" stroke-linejoin="round"></path>
							</svg>