<svg width="48" height="48" viewBox="0 0 48 48" fill="none" xmlns="http://www.w3.org/2000/svg">
<path d="M28 14H34C35.1046 14 36 14.8954 36 16L36 22" stroke="#0177C3" stroke-width="2" stroke-linecap="round" stroke-linejoin="round"/>
<path d="M35 15L27 23" stroke="#0177C3" stroke-width="2" stroke-linecap="round"/>
<path d="M29 31H36C39.866 31 43 27.866 43 24V14C43 10.134 39.866 7 36 7H17C13.134 7 10 10.134 10 14V21" stroke="#0177C3" stroke-width="2" stroke-linecap="round"/>
<path d="M5 32C5 29.2386 7.23858 27 10 27H18C20.7614 27 23 29.2386 23 32V36C23 38.7614 20.7614 41 18 41H10C7.23858 41 5 38.7614 5 36V32Z" stroke="#0177C3" stroke-width="2"/>
</svg>
