<svg width="48" height="48" viewBox="0 0 48 48" fill="none" xmlns="http://www.w3.org/2000/svg">
<path d="M19.4189 8.36464L30.7044 6.06724C31.5674 5.89156 32.2197 6.83652 31.7494 7.58113L28.2786 13.0765C27.8045 13.8272 28.471 14.7775 29.3383 14.5873L36.6985 12.9737C37.6715 12.7604 38.3241 13.9454 37.6237 14.6537L11.0928 41.4841C10.6832 41.8984 10.0064 41.4286 10.2512 40.8999L19.0837 21.8298C19.4433 21.0534 18.7251 20.2133 17.9022 20.4479L12.5181 21.9823C11.6353 22.2339 10.9084 21.2627 11.3986 20.4866L18.7729 8.81055C18.9185 8.58008 19.1518 8.41902 19.4189 8.36464Z" stroke="#0177C3" stroke-width="2" stroke-linecap="round" stroke-linejoin="round"/>
</svg>
