<svg width="48" height="48" viewBox="0 0 48 48" fill="none" xmlns="http://www.w3.org/2000/svg">
<path d="M28.6499 7.13727L7.94137 24.6671C5.63846 26.6165 4.99126 29.9002 6.38225 32.5776C7.68678 35.0887 10.4734 36.4588 13.2586 35.9585L39.947 31.1641" stroke="#0177C3" stroke-width="2" stroke-linejoin="round"/>
<path d="M39.9763 16.4917C43.102 23.1996 43.4039 29.6775 40.6506 30.9605C37.8972 32.2435 33.1314 27.8457 30.0057 21.1378C26.88 14.4299 26.5781 7.952 29.3314 6.66902C32.0847 5.38605 36.8506 9.78383 39.9763 16.4917Z" stroke="#0177C3" stroke-width="2"/>
<path d="M26.2478 33.1353L27.8198 37.0961C28.4041 38.5681 27.4896 40.2056 25.9299 40.4804L19.2447 41.6581C17.8714 41.9001 16.5124 41.1638 15.965 39.8812L13.9688 35.2038" stroke="#0177C3" stroke-width="2"/>
</svg>
