<svg width="48" height="48" viewBox="0 0 48 48" fill="none" xmlns="http://www.w3.org/2000/svg">
<path d="M25.9993 10C25.4752 8.95173 25.3781 7.39385 25.9993 6.4M18.9993 4C19.6536 4.81784 19.999 6 19.1822 7.2281C18.3738 8 18.2428 9.24348 18.9993 10" stroke="#0177C3" stroke-width="2" stroke-linecap="round"/>
<path d="M36 19C36 21.2091 29.732 23 22 23C14.268 23 8 21.2091 8 19C8 16.7909 14.268 15 22 15C29.732 15 36 16.7909 36 19Z" stroke="#0177C3" stroke-width="2" stroke-linejoin="round"/>
<path d="M8.00089 19C7.22604 28.2981 10.979 32.8675 14.7824 35.3266C16.796 36.6285 19.2361 37 21.634 37H22.3678C24.7657 37 27.2058 36.6285 29.2194 35.3266C33.0228 32.8675 36.7757 28.2981 36.0009 19" stroke="#0177C3" stroke-width="2"/>
<path d="M36 22.4C37.3333 21.4 40.1634 19.7961 42 22C44.2652 24.7182 40 30.2 34 30.6" stroke="#0177C3" stroke-width="2"/>
<path d="M12.322 33.3745C9.6358 34.2855 7.96094 35.5733 7.96094 37.0007C7.96094 39.7621 14.229 42.0007 21.9609 42.0007C29.6929 42.0007 35.9609 39.7621 35.9609 37.0007C35.9609 35.5733 34.2861 34.2855 31.5999 33.3745" stroke="#0177C3" stroke-width="2"/>
</svg>
