<svg width="48" height="48" viewBox="0 0 48 48" fill="none" xmlns="http://www.w3.org/2000/svg">
<path d="M17.6939 22.598C21.6486 12.4307 28.7102 8.82338 33.5011 7.35354C34.9726 6.90207 36.5041 7.78626 36.8489 9.28637C37.9714 14.1704 38.3782 22.0895 31.5504 30.598L26.945 35.6188C25.9945 36.655 24.4519 36.892 23.2342 36.189L17.0101 32.5955C15.7924 31.8924 15.2263 30.438 15.6485 29.0967L17.6939 22.598Z" stroke="#0177C3" stroke-width="2"/>
<path d="M16.0237 35.4904C16.9623 33.8647 18.7361 33.5923 20.1218 34.3923C21.5074 35.1923 22.1584 36.8647 21.2198 38.4904C20.4198 39.876 16.1218 41.3205 16.1218 41.3205C16.1218 41.3205 15.2237 36.876 16.0237 35.4904Z" stroke="#0177C3" stroke-width="2" stroke-miterlimit="10"/>
<path d="M21.6936 15.6699L14.267 15.9299C13.0552 15.9723 11.9881 16.7401 11.5627 17.8756L8.79343 25.2675C8.06174 27.2206 9.49698 29.3059 11.5826 29.3199L14.9543 29.3426" stroke="#0177C3" stroke-width="2"/>
<path d="M35.5499 23.6699L39.038 30.2314C39.6071 31.3021 39.4758 32.6102 38.7051 33.5463L33.6882 39.6405C32.3626 41.2507 29.8391 41.0504 28.7841 39.2512L27.0786 36.3426" stroke="#0177C3" stroke-width="2"/>
<path d="M25.0591 11.8397C30.0232 11.2416 35.2194 14.2416 37.1835 18.8397" stroke="#0177C3" stroke-width="2"/>
</svg>
