<svg width="48" height="48" viewBox="0 0 48 48" fill="none" xmlns="http://www.w3.org/2000/svg">
<path d="M31 17C31 20.866 27.866 24 24 24C20.134 24 17 20.866 17 17C17 13.134 20.134 10 24 10C27.866 10 31 13.134 31 17Z" stroke="#0177C3" stroke-width="2"/>
<path d="M35.3907 33.7369L34.2009 31.7146C33.3025 30.1876 31.6631 29.25 29.8914 29.25H18.1104C16.3387 29.25 14.6993 30.1876 13.8009 31.7146L12.6111 33.7369C11.0213 36.4391 11.4555 39.7165 14.4939 40.4895C19.7901 41.8368 28.2118 41.8368 33.508 40.4895C36.5464 39.7165 36.9805 36.4391 35.3907 33.7369Z" stroke="#0177C3" stroke-width="2" stroke-linecap="round"/>
<path d="M31.3633 7.53555C32.1195 7.19159 32.9597 7 33.8447 7C37.1584 7 39.8447 9.68629 39.8447 13C39.8447 15.2076 38.6525 17.1367 36.8768 18.1786" stroke="#0177C3" stroke-width="2" stroke-linecap="round"/>
<path d="M16.6455 7.53555C15.8892 7.19159 15.049 7 14.1641 7C10.8504 7 8.16406 9.68629 8.16406 13C8.16406 15.2076 9.35628 17.1367 11.132 18.1786" stroke="#0177C3" stroke-width="2" stroke-linecap="round"/>
<path d="M40.9638 33.3672C44.2293 32.7093 44.7601 29.3059 43.0709 26.4348L42.9392 26.211C41.951 24.5313 40.1477 23.5 38.1988 23.5H35" stroke="#0177C3" stroke-width="2" stroke-linecap="round"/>
<path d="M7.04446 33.3672C3.77894 32.7093 3.24819 29.3059 4.93735 26.4348L5.06903 26.211C6.05726 24.5313 7.8606 23.5 9.80946 23.5H13.0083" stroke="#0177C3" stroke-width="2" stroke-linecap="round"/>
</svg>
